<svg preserveAspectRatio="none" overflow="visible" style="display: block;" width="18" height="18" viewBox="0 0 18 18" fill="none" xmlns="http://www.w3.org/2000/svg">
<g id="stethoscope">
<path id="Vector" d="M9.75105 1.5C10.579 1.5 11.2502 2.19844 11.2502 3.06002C11.2502 3.77186 11.2771 4.40531 10.7019 4.92897C8.81902 6.64299 7.87755 7.5 6.7502 7.5C5.62285 7.5 4.6814 6.64299 2.79849 4.92897C2.22319 4.40527 2.2502 3.77175 2.2502 3.05986C2.2502 2.19837 2.92132 1.5 3.74919 1.5" stroke="#737373" stroke-width="1.125" stroke-linecap="round" stroke-linejoin="round"/>
<path id="Vector_2" d="M6.75 10.5V13.1248C6.75 14.9889 8.26118 16.5001 10.1252 16.5001C11.9894 16.5001 13.5005 14.9889 13.5005 13.1248V12" stroke="#737373" stroke-width="1.125" stroke-linecap="round" stroke-linejoin="round"/>
<path id="Vector_3" d="M10.5 5.25L9.52335 7.6917C9.2637 8.34075 9.13387 8.66527 8.91652 8.9319C8.6991 9.1986 8.40735 9.39112 7.82393 9.77617L6.7272 10.5L5.64962 9.77422C5.07916 9.39007 4.79392 9.19792 4.58116 8.93445C4.36839 8.67097 4.24067 8.3517 3.98524 7.71307L3 5.25" stroke="#737373" stroke-width="1.125" stroke-linecap="round" stroke-linejoin="round"/>
<path id="Vector_4" d="M15.75 9.75C15.75 10.9927 14.7427 12 13.5 12C12.2573 12 11.25 10.9927 11.25 9.75C11.25 8.50732 12.2573 7.5 13.5 7.5C14.7427 7.5 15.75 8.50732 15.75 9.75Z" stroke="#737373" stroke-width="1.125"/>
<path id="Vector_5" d="M13.5938 9.75H13.5M13.6875 9.75C13.6875 9.85357 13.6036 9.9375 13.5 9.9375C13.3964 9.9375 13.3125 9.85357 13.3125 9.75C13.3125 9.64643 13.3964 9.5625 13.5 9.5625C13.6036 9.5625 13.6875 9.64643 13.6875 9.75Z" stroke="#737373" stroke-width="1.125" stroke-linecap="round" stroke-linejoin="round"/>
</g>
</svg>
